STARTFONT 2.1
COMMENT 97.1.21  Created by Toru TOMABECHI <Toru.Tomabechi@orient.unil.ch>.
COMMENT The glyphs are taken, using PS2PK and PK2BM, from TibMdxA type 1 font,
COMMENT originally designed by Christopher FYNN <cfynn@sahaja.demon.co.uk>.
COMMENT Slight modification has been made using XMBDFED and glyphs have
COMMENT been re-ordered.
COMMENT 
COMMENT Original glyph design: Copyright (C) Christopher FYNN 1993-1994.
COMMENT Many thanks to Chris for kindly permitting its
COMMENT non-commercial use for our implementation.
COMMENT 
COMMENT 97.03.13 Additional glyphs by T. TOMABECHI
COMMENT 97.06.19 CHARSET_REGISTRY field changed by K. Handa <handa@etl.go.jp>
COMMENT 
FONT -TibMdXA-fixed-medium-r-normal--24-240-72-72-m-240-MuleTibetan-0
SIZE 24 72 72
FONTBOUNDINGBOX 24 28 0 -7
STARTPROPERTIES 23
FOUNDRY "misc"
FAMILY_NAME "fixed"
WEIGHT_NAME "medium"
SLANT "r"
SETWIDTH_NAME "normal"
ADD_STYLE_NAME ""
PIXEL_SIZE 24
POINT_SIZE 240
RESOLUTION_X 72
RESOLUTION_Y 72
SPACING "m"
AVERAGE_WIDTH 240
CHARSET_REGISTRY "MuleTibetan"
CHARSET_ENCODING "0"
STRIKEOUT_ASCENT 25
STRIKEOUT_DESCENT 10
X_HEIGHT 12
FACE_NAME "Mule Tibetan (24dots)"
COPYRIGHT "Original design (C) Christopher FYNN 1993-1994"
FONT_ASCENT 25
FONT_DESCENT 10
DEFAULT_CHAR 8481
_XMBDFED_INFO "Edited with xmbdfed 1.6."
ENDPROPERTIES
CHARS 279
STARTCHAR space
ENCODING 8481
SWIDTH 1000 0
DWIDTH 24 0
BBX 24 18 0 0
BITMAP
FFFFFF
800001
800001
800001
800001
800001
800001
800001
800001
800001
800001
800001
800001
800001
800001
800001
800001
FFFFFF
ENDCHAR
STARTCHAR OM
ENCODING 8496
SWIDTH 1000 0
DWIDTH 24 0
BBX 22 21 2 0
BITMAP
007E00
008F00
018304
01E23C
00FC78
3C01C0
7F8700
00CC00
003000
001000
E3FE3C
E3FE1C
41F81C
421E1C
47871C
C0C19C
8040CC
E0C06C
7F003C
1E001C
00001C
ENDCHAR
STARTCHAR TIBETAN MARK GTER YIG MGO TRUNCATED A
ENCODING 8497
SWIDTH 1000 0
DWIDTH 24 0
BBX 21 18 3 3
BITMAP
001F00
002180
003180
011E60
01C1C0
007E00
000000
E1FE00
C0FC00
41F800
421E00
478300
80C180
8040C0
C0C060
3F0020
3E0010
000008
ENDCHAR
STARTCHAR char8498
ENCODING 8498
SWIDTH 1000 0
DWIDTH 24 0
BBX 22 22 2 -2
BITMAP
01F000
021800
031800
11E600
1C1DF0
07E218
000208
000398
0000E0
03E000
07F0E0
083118
18220C
19F308
09F9F0
000400
E00000
1C0F80
070060
01C020
0038C0
000F00
ENDCHAR
STARTCHAR char8499
ENCODING 8499
SWIDTH 1000 0
DWIDTH 24 0
BBX 22 22 2 -2
BITMAP
01F000
021800
031800
11E600
1C1DF0
07E218
000208
000398
0000E0
03E000
07F3FC
083000
1820E0
19F118
09FA0C
000708
E001F0
1C0F80
070060
01C020
0038C0
000F00
ENDCHAR
STARTCHAR char8500
ENCODING 8500
SWIDTH 1000 0
DWIDTH 24 0
BBX 24 13 0 5
BITMAP
0007F0
C008F8
70303C
18300E
0C3803
C60F01
630006
31E038
1C7FE0
060001
030006
01E038
007FE0
ENDCHAR
STARTCHAR char8501
ENCODING 8501
SWIDTH 1000 0
DWIDTH 24 0
BBX 20 13 0 5
BITMAP
007F00
008F80
0303C0
0300E0
038030
80F010
700060
1E0380
01FC00
800010
600060
1C0380
07FE00
ENDCHAR
STARTCHAR char8502
ENCODING 8502
SWIDTH 1000 0
DWIDTH 24 0
BBX 24 25 0 -7
BITMAP
0007F0
C008F8
70303C
18300E
0C3803
C60F01
630006
31E038
1C7FE0
060001
030006
01E038
007FE0
000000
0071C0
001F00
000000
001F00
000E00
000400
000400
000400
000400
000400
000400
ENDCHAR
STARTCHAR char8503
ENCODING 8503
SWIDTH 1000 0
DWIDTH 24 0
BBX 24 11 0 7
BITMAP
00F983
01FD83
030C99
020699
C30281
71C281
180699
0C0C99
071881
01F081
000081
ENDCHAR
STARTCHAR TIBETAN MARK SBRUL SHAD
ENCODING 8504
SWIDTH 1000 0
DWIDTH 24 0
BBX 15 25 3 -7
BITMAP
0006
3F86
6182
E18C
E3F0
000C
E072
3986
071C
F0E0
0D00
0200
0700
0F00
0600
0600
0600
0200
0200
0200
0200
0200
0200
0200
0200
ENDCHAR
STARTCHAR char8505
ENCODING 8505
SWIDTH 1000 0
DWIDTH 24 0
BBX 17 19 1 0
BITMAP
00FC00
0FFE00
3E0780
600380
800300
03CC00
07F000
1C7800
301C00
078600
1FC300
306300
203100
001900
001800
000C00
000C00
000400
000400
ENDCHAR
STARTCHAR char8506
ENCODING 8506
SWIDTH 1000 0
DWIDTH 24 0
BBX 21 25 2 -5
BITMAP
300000
E00000
E01FC0
C0FFE0
C3E078
C60038
C80030
C03CC0
C07F00
C1C780
C301C0
C07860
C1FC30
C30630
C20310
C00190
C00180
C000C0
C000C0
C00040
E00040
780010
3E0030
0FFFF0
03FFE0
ENDCHAR
STARTCHAR TIBETAN MARK INTERSYLLABIC TSHEG
ENCODING 8507
SWIDTH 1000 0
DWIDTH 24 0
BBX 5 3 3 15
BITMAP
F8
70
20
ENDCHAR
STARTCHAR TIBETAN MARK SHAD
ENCODING 8509
SWIDTH 1000 0
DWIDTH 24 0
BBX 4 23 3 -5
BITMAP
F0
E0
E0
E0
60
60
60
60
60
60
60
60
60
60
60
60
20
20
20
20
20
20
20
ENDCHAR
STARTCHAR TIBETAN MARK NYIS SHAD
ENCODING 8510
SWIDTH 1000 0
DWIDTH 24 0
BBX 24 23 0 -5
BITMAP
1E00F0
1C00E0
1C00E0
1C00E0
0C0060
0C0060
0C0060
0C0060
0C0060
0C0060
0C0060
0C0060
0C0060
0C0060
0C0060
0C0060
040020
040020
040020
040020
040020
040020
040020
ENDCHAR
STARTCHAR TIBETAN MARK TSHEG SHAD
ENCODING 8511
SWIDTH 1000 0
DWIDTH 24 0
BBX 6 23 6 -5
BITMAP
FC
78
30
00
70
70
30
30
30
30
30
30
30
30
30
30
30
10
10
10
10
10
10
ENDCHAR
STARTCHAR TIBETAN MARK GNYIS TSHEG SHAD
ENCODING 8512
SWIDTH 1000 0
DWIDTH 24 0
BBX 9 25 4 -7
BITMAP
7F80
FF00
0000
3E00
1C00
0000
1E00
1C00
0C00
0C00
0C00
0C00
0C00
0C00
0C00
0C00
0C00
0400
0400
0400
0400
0400
0400
0400
0400
ENDCHAR
STARTCHAR TIBETAN MARK RIN CHEN SPUNGS SHAD
ENCODING 8513
SWIDTH 1000 0
DWIDTH 24 0
BBX 12 23 3 -5
BITMAP
F9F0
6060
0000
0F00
0600
0000
0E00
0E00
0600
0600
0600
0600
0600
0600
0600
0600
0600
0200
0200
0200
0200
0200
0200
ENDCHAR
STARTCHAR char8514
ENCODING 8514
SWIDTH 1000 0
DWIDTH 24 0
BBX 24 26 0 -7
BITMAP
000400
000C00
000E00
003300
002300
013E40
01C180
007E00
000000
000000
FDDDDF
0C8898
000000
000000
003F00
007E00
000000
003E00
001C00
001C00
000800
000800
000800
000800
000800
000800
ENDCHAR
STARTCHAR char8515
ENCODING 8515
SWIDTH 1000 0
DWIDTH 24 0
BBX 24 25 0 -7
BITMAP
001C00
001C00
000000
000000
01FF80
03FFC0
0700E0
0E0070
1C0038
180018
D8001B
D8001B
D8001B
180018
180018
1C0038
0E0070
0700E0
0381C0
01FF80
00FF00
000000
000000
001C00
001C00
ENDCHAR
STARTCHAR TIBETAN MARK GTER TSHEG
ENCODING 8516
SWIDTH 1000 0
DWIDTH 24 0
BBX 11 11 3 7
BITMAP
3E00
4300
6100
3E00
80E0
FF00
0000
3E00
6380
6180
1E00
ENDCHAR
STARTCHAR char8517
ENCODING 8517
SWIDTH 1000 0
DWIDTH 24 0
BBX 20 25 2 -7
BITMAP
FFFFF0
FFFFF0
C00030
FF9FF0
FF9FF0
C00030
C00030
CF9F30
CF9F30
C00030
C00030
FFFFF0
FFFFF0
C00030
FC1830
1F8E30
01E730
0073B0
0018F0
000E70
000330
0001B0
0000F0
000070
000010
ENDCHAR
STARTCHAR char8518
ENCODING 8518
SWIDTH 1000 0
DWIDTH 24 0
BBX 17 27 4 -7
BITMAP
FF8000
FF8000
C18000
DF8000
DF8000
D80000
DFFF80
DFFF80
C00180
C00180
FFCF80
FFCF80
00CC00
FFCC00
FFCC00
C00C00
FFFC00
FFFC00
000000
FFFF80
FFFF80
018000
FFFF80
FFFF80
C00180
FFFF80
FFFF80
ENDCHAR
STARTCHAR char8519
ENCODING 8519
SWIDTH 1000 0
DWIDTH 24 0
BBX 22 16 1 2
BITMAP
000600
002CC4
00698C
00C910
0289F8
048F90
04F810
34F810
27CC30
26CC20
28C460
38CFC0
307F00
3FF800
700000
800000
ENDCHAR
STARTCHAR char8520
ENCODING 8520
SWIDTH 1000 0
DWIDTH 24 0
BBX 18 17 6 -6
BITMAP
000040
000040
01F0C0
011880
010980
018700
00E600
1E3C00
330800
319800
18B000
0FE000
030000
020000
020000
1C0000
F00000
ENDCHAR
STARTCHAR char8521
ENCODING 8521
SWIDTH 1000 0
DWIDTH 24 0
BBX 5 12 10 -7
BITMAP
F8
F8
70
20
20
20
20
20
20
20
20
20
ENDCHAR
STARTCHAR char8522
ENCODING 8522
SWIDTH 1000 0
DWIDTH 24 0
BBX 8 8 8 7
BITMAP
3C
7E
C3
C3
C3
C3
7E
3C
ENDCHAR
STARTCHAR char8523
ENCODING 8523
SWIDTH 1000 0
DWIDTH 24 0
BBX 20 8 2 7
BITMAP
3C03C0
7E07E0
C30C30
C30C30
C30C30
C30C30
7E07E0
3C03C0
ENDCHAR
STARTCHAR char8524
ENCODING 8524
SWIDTH 1000 0
DWIDTH 24 0
BBX 20 18 2 -1
BITMAP
00F000
01F800
030C00
030C00
030C00
030C00
01F800
00F000
000000
000000
3C03C0
7E07E0
C30C30
C30C30
C30C30
C30C30
7E07E0
3C03C0
ENDCHAR
STARTCHAR char8525
ENCODING 8525
SWIDTH 1000 0
DWIDTH 24 0
BBX 20 18 2 0
BITMAP
000070
F800F0
7C01E0
3C03C0
1E0780
0E0E00
071C00
03B800
01F000
00C000
01E000
033000
061800
0C0C00
180600
300300
600180
C000C0
ENDCHAR
STARTCHAR char8526
ENCODING 8526
SWIDTH 1000 0
DWIDTH 24 0
BBX 22 10 1 7
BITMAP
C0CC0C
618618
330330
1E01E0
0C00C0
0E00E0
1B01B0
318318
60C60C
C04C04
ENDCHAR
STARTCHAR char8527
ENCODING 8527
SWIDTH 1000 0
DWIDTH 24 0
BBX 21 10 2 7
BITMAP
001818
3C0C30
7E0660
C303C0
C30180
C301C0
C30360
7E0630
3C0C18
001808
ENDCHAR
STARTCHAR TIBETAN DIGIT ZERO
ENCODING 8528
SWIDTH 1000 0
DWIDTH 24 0
BBX 16 9 0 9
BITMAP
03F8
1E06
3803
7003
E007
C00E
C01E
6078
1FE0
ENDCHAR
STARTCHAR TIBETAN DIGIT ONE
ENCODING 8529
SWIDTH 1000 0
DWIDTH 24 0
BBX 14 13 2 5
BITMAP
07E0
78F0
E078
F03C
701C
781C
203C
0078
00E0
0380
0E00
3000
C000
ENDCHAR
STARTCHAR TIBETAN DIGIT TWO
ENCODING 8530
SWIDTH 1000 0
DWIDTH 24 0
BBX 24 12 0 6
BITMAP
00FF00
0F03C0
3001C0
400180
000600
03F800
0C3C00
000E00
000300
000180
000180
000080
ENDCHAR
STARTCHAR TIBETAN DIGIT THREE
ENCODING 8531
SWIDTH 1000 0
DWIDTH 24 0
BBX 16 13 2 5
BITMAP
03FC
1E0E
3007
000F
0FF0
000E
0007
000F
003E
FFC0
00F0
001C
0006
ENDCHAR
STARTCHAR TIBETAN DIGIT FOUR
ENCODING 8532
SWIDTH 1000 0
DWIDTH 24 0
BBX 24 11 0 7
BITMAP
0FF800
707000
707000
303800
381EE0
1C0300
0E0000
070000
01C000
00F000
001FE0
ENDCHAR
STARTCHAR TIBETAN DIGIT FIVE
ENCODING 8533
SWIDTH 1000 0
DWIDTH 24 0
BBX 15 10 0 8
BITMAP
3000
7000
700C
700C
E018
E018
E038
E038
7FE8
0006
ENDCHAR
STARTCHAR TIBETAN DIGIT SIX
ENCODING 8534
SWIDTH 1000 0
DWIDTH 24 0
BBX 16 10 0 8
BITMAP
01FE
4200
C600
C300
61E0
601E
3007
3803
1E0E
07F0
ENDCHAR
STARTCHAR TIBETAN DIGIT SEVEN
ENCODING 8535
SWIDTH 1000 0
DWIDTH 24 0
BBX 24 11 0 7
BITMAP
000004
00001C
07E01C
1C781C
381C1C
301C1C
70181C
603038
006078
00C1E0
01FF80
ENDCHAR
STARTCHAR TIBETAN DIGIT EIGHT
ENCODING 8536
SWIDTH 1000 0
DWIDTH 24 0
BBX 13 11 1 7
BITMAP
01C0
0780
0E00
3800
F000
3E00
03C0
00F0
0038
0018
0008
ENDCHAR
STARTCHAR TIBETAN DIGIT NINE
ENCODING 8537
SWIDTH 1000 0
DWIDTH 24 0
BBX 24 13 0 5
BITMAP
01FE00
0F8380
1C00C0
3801C0
381F80
70F000
718000
70C000
703FC0
700000
700000
600000
400000
ENDCHAR
STARTCHAR char8538
ENCODING 8538
SWIDTH 1000 0
DWIDTH 24 0
BBX 24 13 0 5
BITMAP
003F00
03C780
0703C0
0781E0
03FFF0
1FC0FE
FD01E3
8003C3
000707
001C0E
007000
018000
060000
ENDCHAR
STARTCHAR char8539
ENCODING 8539
SWIDTH 1000 0
DWIDTH 24 0
BBX 24 14 0 4
BITMAP
003FC0
03C0F0
0C0070
01FFF0
1FC1BE
FC0303
800403
00FE07
030F0E
000380
0000C0
000060
000060
000020
ENDCHAR
STARTCHAR char8540
ENCODING 8540
SWIDTH 1000 0
DWIDTH 24 0
BBX 24 13 0 5
BITMAP
007F80
03C1C0
0400E0
01FFF0
1FFE3E
FC01C3
8000E3
0001E7
0007CE
1FF800
001E00
000380
0000C0
ENDCHAR
STARTCHAR char8541
ENCODING 8541
SWIDTH 1000 0
DWIDTH 24 0
BBX 24 11 0 7
BITMAP
07FC00
383800
39FFF0
1FDC0E
FC0F63
8E0183
070007
03800E
00E000
007800
000FF0
ENDCHAR
STARTCHAR char8542
ENCODING 8542
SWIDTH 1000 0
DWIDTH 24 0
BBX 24 11 0 7
BITMAP
030000
070000
0700C0
0700C0
0FFFF0
1F81BE
FE0383
860383
07FE87
0000CE
000060
ENDCHAR
STARTCHAR char8543
ENCODING 8543
SWIDTH 1000 0
DWIDTH 24 0
BBX 24 10 0 8
BITMAP
003FC0
084000
19FFF0
1FE03E
FC3C03
8C03C3
0600E7
07006E
03C1C0
00FE00
ENDCHAR
STARTCHAR char8544
ENCODING 8544
SWIDTH 1000 0
DWIDTH 24 0
BBX 24 11 0 7
BITMAP
000008
000038
03E038
0E7838
1C1C38
19FFF8
3FD83E
FC3073
8060F3
00C3C7
01FF0E
ENDCHAR
STARTCHAR char8545
ENCODING 8545
SWIDTH 1000 0
DWIDTH 24 0
BBX 24 11 0 7
BITMAP
000E00
003C00
007000
01C000
07FFF0
1FF03E
FC1E03
800783
0001C7
0000CE
000040
ENDCHAR
STARTCHAR char8546
ENCODING 8546
SWIDTH 1000 0
DWIDTH 24 0
BBX 24 13 0 5
BITMAP
007F80
03E0E0
070030
0FFFF0
1F87FE
FC3C03
9C6003
1C3007
1C0FE6
1C0000
1C0000
180000
100000
ENDCHAR
STARTCHAR char8547
ENCODING 8547
SWIDTH 1000 0
DWIDTH 24 0
BBX 24 10 0 8
BITMAP
007F00
03C0C0
070060
0E0060
1DFFF0
1FC1FE
FC03C3
0C0F03
03FC07
00000E
ENDCHAR
STARTCHAR char8548
ENCODING 8548
SWIDTH 1000 0
DWIDTH 24 0
BBX 9 14 7 4
BITMAP
7F00
3E00
1C00
0800
0000
0000
0000
7F80
FF00
0000
0000
0000
7F80
FF00
ENDCHAR
STARTCHAR TIBETAN MARK NGAS BZUNG NYI ZLA
ENCODING 8549
SWIDTH 1000 0
DWIDTH 24 0
BBX 12 6 7 -5
BITMAP
0F80
10C0
18C0
8F30
E0E0
3F00
ENDCHAR
STARTCHAR char8550
ENCODING 8550
SWIDTH 1000 0
DWIDTH 24 0
BBX 19 20 3 -2
BITMAP
004000
00E000
00E000
00E000
004000
000000
000000
000000
400040
E000E0
E000E0
E000E0
400040
000000
000000
004000
00E000
00E000
00E000
004000
ENDCHAR
STARTCHAR char8551
ENCODING 8551
SWIDTH 1000 0
DWIDTH 24 0
BBX 9 5 8 -4
BITMAP
3F00
4780
C180
F100
7E00
ENDCHAR
STARTCHAR char8552
ENCODING 8552
SWIDTH 1000 0
DWIDTH 24 0
BBX 17 10 4 7
BITMAP
000180
0F0180
3BC180
70C180
60C180
E0C180
C18380
030700
061E00
0FF800
ENDCHAR
STARTCHAR char8553
ENCODING 8553
SWIDTH 1000 0
DWIDTH 24 0
BBX 7 5 17 16
BITMAP
0E
3E
60
40
C0
ENDCHAR
STARTCHAR char8554
ENCODING 8554
SWIDTH 1000 0
DWIDTH 24 0
BBX 24 12 0 6
BITMAP
000006
00000F
00F009
E198CF
300DE6
180D20
0C0DE0
0618C6
03E00F
000009
00000F
000006
ENDCHAR
STARTCHAR char8555
ENCODING 8555
SWIDTH 1000 0
DWIDTH 24 0
BBX 24 12 0 6
BITMAP
600000
F00000
900F00
F31987
67B00C
04B018
07B030
631860
F007C0
900000
F00000
600000
ENDCHAR
STARTCHAR TIBETAN MARK ANG KHANG GYON
ENCODING 8556
SWIDTH 1000 0
DWIDTH 24 0
BBX 24 24 0 -3
BITMAP
000001
000003
00001E
000038
000030
00FFE0
03C000
070000
0E0000
0E0000
0E0000
0E0000
0E0000
0E0000
0E0000
0E0000
0E0000
0E0000
0E0000
0E0000
0E0000
1E0000
380000
400000
ENDCHAR
STARTCHAR TIBETAN MARK ANG KHANG GYAS
ENCODING 8557
SWIDTH 1000 0
DWIDTH 24 0
BBX 24 24 0 -3
BITMAP
800000
C00000
780000
1C0000
0C0000
07FF00
0003C0
0000E0
000070
000070
000070
000070
000070
000070
000070
000070
000070
000070
000070
000070
000070
000078
00001C
000002
ENDCHAR
STARTCHAR char8558
ENCODING 8558
SWIDTH 1000 0
DWIDTH 24 0
BBX 11 18 13 -7
BITMAP
01E0
0FC0
1E00
3800
3000
6000
6000
E000
C000
C000
C000
C000
C000
C000
C000
C000
C000
C000
ENDCHAR
STARTCHAR char8559
ENCODING 8559
SWIDTH 1000 0
DWIDTH 24 0
BBX 11 18 0 -7
BITMAP
F000
7E00
0F00
0380
0180
00C0
00C0
00E0
0060
0060
0060
0060
0060
0060
0060
0060
0060
0060
ENDCHAR
STARTCHAR TIBETAN LETTER KA
ENCODING 8737
SWIDTH 1000 0
DWIDTH 24 0
BBX 20 18 4 0
BITMAP
7FFFF0
7FFFF0
186070
187070
183070
303030
E03030
C01030
001030
001030
000030
000030
000010
000010
000010
000010
000010
000010
ENDCHAR
STARTCHAR TIBETAN LETTER KHA
ENCODING 8738
SWIDTH 1000 0
DWIDTH 24 0
BBX 21 18 3 0
BITMAP
7FFFF8
FFFFF8
C07018
C06018
C0C018
C08018
C1FC18
C01F88
C001C8
800028
800018
800000
800000
800000
800000
800000
800000
800000
ENDCHAR
STARTCHAR TIBETAN LETTER GA
ENCODING 8739
SWIDTH 1000 0
DWIDTH 24 0
BBX 21 18 3 0
BITMAP
3FFFF8
7FFFF0
303070
603070
603070
403030
FC1030
0F9030
00F030
001030
000030
000030
000010
000010
000010
000010
000010
000010
ENDCHAR
STARTCHAR TIBETAN LETTER GHA
ENCODING 8740
SWIDTH 1000 0
DWIDTH 24 0
BBX 24 22 0 -4
BITMAP
07FFFF
07FFFF
030307
060303
040303
040303
0FE303
007903
000503
000303
000001
01FFF8
01FFF0
008000
010000
021FF0
07E038
07F818
000430
000060
0000C0
000100
ENDCHAR
STARTCHAR TIBETAN LETTER NGA
ENCODING 8741
SWIDTH 1000 0
DWIDTH 24 0
BBX 19 11 5 7
BITMAP
3FFFC0
1FFFE0
380000
300000
600000
400000
FFC000
FFF800
001E00
000380
0000C0
ENDCHAR
STARTCHAR TIBETAN LETTER CA
ENCODING 8742
SWIDTH 1000 0
DWIDTH 24 0
BBX 15 12 9 6
BITMAP
3FFE
7FFC
0100
0080
0080
83E0
FE7C
400E
3006
1C0C
07F8
03E0
ENDCHAR
STARTCHAR TIBETAN LETTER CHA
ENCODING 8743
SWIDTH 1000 0
DWIDTH 24 0
BBX 18 12 6 6
BITMAP
7FFF80
FFFF00
010000
008000
008000
3FFF00
7FFF80
C080C0
808040
C1E180
3F3F00
1C0E00
ENDCHAR
STARTCHAR TIBETAN LETTER JA
ENCODING 8744
SWIDTH 1000 0
DWIDTH 24 0
BBX 16 12 7 6
BITMAP
3FFF
1FFE
3000
2000
7FFC
7FF8
4000
4000
7FF8
FFFE
0003
0001
ENDCHAR
STARTCHAR RESERVED
ENCODING 8745
SWIDTH 1000 0
DWIDTH 24 0
BBX 20 18 2 0
BITMAP
FFFFF0
FFFFF0
FFFFF0
FFFFF0
FFFFF0
FFFFF0
FFFFF0
FFFFF0
FFFFF0
FFFFF0
FFFFF0
FFFFF0
FFFFF0
FFFFF0
FFFFF0
FFFFF0
FFFFF0
FFFFF0
ENDCHAR
STARTCHAR TIBETAN LETTER NYA
ENCODING 8746
SWIDTH 1000 0
DWIDTH 24 0
BBX 18 17 6 1
BITMAP
0FF800
1FFC00
301C00
401800
C07C00
C1BF80
0203C0
0603C0
030380
000700
000600
000C00
001800
003000
002000
004000
008000
ENDCHAR
STARTCHAR TIBETAN LETTER TTA
ENCODING 8747
SWIDTH 1000 0
DWIDTH 24 0
BBX 18 17 6 1
BITMAP
7FFFC0
FFFF80
000180
000180
000100
1FF100
781D00
700600
700200
380200
180000
0C0000
040000
060000
030000
010000
008000
ENDCHAR
STARTCHAR TIBETAN LETTER TTHA
ENCODING 8748
SWIDTH 1000 0
DWIDTH 24 0
BBX 16 13 8 5
BITMAP
FFFE
FFFC
C006
C006
FFF8
FFFC
C006
C006
C7FF
DFC0
FC00
E000
8000
ENDCHAR
STARTCHAR TIBETAN LETTER DDA
ENCODING 8749
SWIDTH 1000 0
DWIDTH 24 0
BBX 17 20 6 -2
BITMAP
7FFF80
FFFF00
000300
000300
000180
000080
003F80
03FF80
078000
0C0000
180000
300000
600000
600000
C00000
C00000
800000
800000
800000
800000
ENDCHAR
STARTCHAR TIBETAN LETTER DDHA
ENCODING 8750
SWIDTH 1000 0
DWIDTH 24 0
BBX 16 22 8 -4
BITMAP
7FFE
7FFC
000C
0004
0006
0002
1FFE
7FFE
4000
C000
C000
BFFE
3FFE
1800
21F8
43FC
FC03
1F03
0086
000C
0018
0020
ENDCHAR
STARTCHAR TIBETAN LETTER NNA
ENCODING 8751
SWIDTH 1000 0
DWIDTH 24 0
BBX 14 19 10 -1
BITMAP
7FF8
FFF8
0300
0600
07E0
0FF8
180C
3004
780C
6FF8
C3E0
C000
C000
C000
8000
8000
8000
8000
8000
ENDCHAR
STARTCHAR TIBETAN LETTER TA
ENCODING 8752
SWIDTH 1000 0
DWIDTH 24 0
BBX 18 17 6 1
BITMAP
FFFF00
FFFF00
600000
600000
20FC00
21FE00
370780
1C03C0
1801C0
080180
000380
000700
000600
000C00
001800
003000
006000
ENDCHAR
STARTCHAR TIBETAN LETTER THA
ENCODING 8753
SWIDTH 1000 0
DWIDTH 24 0
BBX 17 13 7 5
BITMAP
7FFF80
3FFF00
600300
600300
1FFF00
3FFF00
600300
600100
FFC100
07F900
007F00
000300
000100
ENDCHAR
STARTCHAR TIBETAN LETTER DA
ENCODING 8754
SWIDTH 1000 0
DWIDTH 24 0
BBX 18 20 6 -2
BITMAP
7FFFC0
FFFF80
300000
600000
600000
400000
FF0000
FFE000
007800
001C00
000600
000300
000180
000180
000080
0000C0
000040
000040
000040
000040
ENDCHAR
STARTCHAR TIBETAN LETTER DHA
ENCODING 8755
SWIDTH 1000 0
DWIDTH 24 0
BBX 17 22 7 -4
BITMAP
3FFF80
3FFF00
1C0000
100000
300000
200000
7FFE00
000700
000180
000080
000080
1FFF00
3FFF00
180000
200000
43FE00
7C0300
FF0300
008300
000600
001800
002000
ENDCHAR
STARTCHAR TIBETAN LETTER NA
ENCODING 8756
SWIDTH 1000 0
DWIDTH 24 0
BBX 14 20 10 -2
BITMAP
7FFC
FFF8
0300
0100
0F80
3FC0
E070
8038
C078
3F98
1F0C
000C
000C
000C
0004
0004
0004
0004
0004
0004
ENDCHAR
STARTCHAR TIBETAN LETTER PA
ENCODING 8757
SWIDTH 1000 0
DWIDTH 24 0
BBX 18 12 6 6
BITMAP
3FE1C0
7FC1C0
1800C0
1000C0
3000C0
2000C0
FFC040
7FF840
003E40
000740
0000C0
000040
ENDCHAR
STARTCHAR TIBETAN LETTER PHA
ENCODING 8758
SWIDTH 1000 0
DWIDTH 24 0
BBX 17 12 7 6
BITMAP
7FC380
FF8380
300380
600180
403F80
40E180
FF0180
7FF080
007C80
000E80
000380
000080
ENDCHAR
STARTCHAR TIBETAN LETTER BA
ENCODING 8759
SWIDTH 1000 0
DWIDTH 24 0
BBX 17 12 7 6
BITMAP
7FFF80
FFFF80
300180
600180
600180
400180
FF8180
FFF080
003C80
000E80
000380
000080
ENDCHAR
STARTCHAR TIBETAN LETTER BHA
ENCODING 8760
SWIDTH 1000 0
DWIDTH 24 0
BBX 17 22 7 -4
BITMAP
7FFF80
7FFF80
380380
200180
600180
400180
FF0180
FFF180
003D80
000E80
000380
3FFE00
3FFE00
100000
60F800
43FE00
FE0700
FF0300
008600
000C00
001800
002000
ENDCHAR
STARTCHAR TIBETAN LETTER MA
ENCODING 8761
SWIDTH 1000 0
DWIDTH 24 0
BBX 19 13 5 5
BITMAP
7FE1E0
FFC0C0
0600C0
0300C0
0F80C0
7FC0C0
C078C0
802C40
E0C640
7F8340
1E01C0
0000C0
000040
ENDCHAR
STARTCHAR TIBETAN LETTER TSA
ENCODING 8762
SWIDTH 1000 0
DWIDTH 24 0
BBX 18 14 6 6
BITMAP
0007C0
000CC0
1FFE00
3FFE00
018000
008000
008000
83E000
FE7C00
600E00
300600
1C0C00
07F000
03E000
ENDCHAR
STARTCHAR TIBETAN LETTER TSHA
ENCODING 8763
SWIDTH 1000 0
DWIDTH 24 0
BBX 19 14 5 6
BITMAP
0003E0
000660
3FFF00
7FFF00
018000
008000
008000
3FFE00
7FFF80
C0C0C0
80C040
C0C0C0
7F3F80
3C0E00
ENDCHAR
STARTCHAR TIBETAN LETTER DZA
ENCODING 8764
SWIDTH 1000 0
DWIDTH 24 0
BBX 20 13 4 7
BITMAP
0001F0
000330
3FFF00
3FFF00
180000
200000
7FFC00
7FF800
400000
400000
7FF000
FFFE00
000300
ENDCHAR
STARTCHAR TIBETAN LETTER DZHA
ENCODING 8765
SWIDTH 1000 0
DWIDTH 24 0
BBX 22 24 2 -4
BITMAP
00007C
0000CC
0FFFC0
0FFFC0
060000
080000
1FFF00
1FFE00
100000
100000
1FFC00
3FFF80
0000C0
3FFF00
3FFE00
100000
200000
43FE00
FC0700
FF0300
008600
000C00
001800
002000
ENDCHAR
STARTCHAR TIBETAN LETTER WA
ENCODING 8766
SWIDTH 1000 0
DWIDTH 24 0
BBX 22 13 2 5
BITMAP
07E03C
1FE01C
20701C
40701C
C0601C
C1FFFC
C1FFFC
03000C
02000C
07FE0C
07FFCC
00007C
00001C
ENDCHAR
STARTCHAR TIBETAN LETTER ZHA
ENCODING 8767
SWIDTH 1000 0
DWIDTH 24 0
BBX 18 19 6 -1
BITMAP
07FF00
0FFF00
180180
200180
60F180
C1F980
831F00
860700
C30F80
E1F980
60F180
2001C0
0000C0
0000C0
0000C0
000040
000040
000040
000040
ENDCHAR
STARTCHAR TIBETAN LETTER ZA
ENCODING 8768
SWIDTH 1000 0
DWIDTH 24 0
BBX 17 12 7 6
BITMAP
7FFF80
3FFF00
000300
000300
3FFB00
07FF00
000300
000300
FFE300
3FF900
007F00
000100
ENDCHAR
STARTCHAR TIBETAN LETTER -A
ENCODING 8769
SWIDTH 1000 0
DWIDTH 24 0
BBX 22 12 1 6
BITMAP
07FF80
1FFF80
3001C0
6001C0
400380
C00600
C00C00
E0FF00
41FFE0
0001F8
00001C
000004
ENDCHAR
STARTCHAR TIBETAN LETTER YA
ENCODING 8770
SWIDTH 1000 0
DWIDTH 24 0
BBX 20 12 4 6
BITMAP
79E0F0
F9E0F0
60C060
404060
804060
C0C060
FFF820
7E1E20
000320
0001A0
0000E0
000020
ENDCHAR
STARTCHAR TIBETAN LETTER RA
ENCODING 8771
SWIDTH 1000 0
DWIDTH 24 0
BBX 19 12 4 6
BITMAP
7FFF80
FFFF00
018000
008000
004000
FFF800
FFFE00
000300
000180
0000C0
000040
000020
ENDCHAR
STARTCHAR TIBETAN LETTER LA
ENCODING 8772
SWIDTH 1000 0
DWIDTH 24 0
BBX 23 11 1 7
BITMAP
07F81E
0FFC0E
100E0E
200E0E
400C0E
C0180E
C0300E
C1FF06
71FFC6
20007E
00000E
ENDCHAR
STARTCHAR TIBETAN LETTER SHA
ENCODING 8773
SWIDTH 1000 0
DWIDTH 24 0
BBX 20 17 4 1
BITMAP
00FEF0
03FFE0
0701E0
0C00E0
0C00E0
0F83E0
08FF60
F83C60
FE0060
078060
008020
000020
000020
000020
000020
000020
000020
ENDCHAR
STARTCHAR TIBETAN LETTER SSA
ENCODING 8774
SWIDTH 1000 0
DWIDTH 24 0
BBX 20 18 4 0
BITMAP
F7F000
7FFC00
780E00
700700
700700
7C1D00
6FF100
67E1F0
6007F0
601C00
401000
400000
400000
400000
400000
400000
400000
400000
ENDCHAR
STARTCHAR TIBETAN LETTER SA
ENCODING 8775
SWIDTH 1000 0
DWIDTH 24 0
BBX 20 11 4 7
BITMAP
3FF0F0
7FE070
1FC070
20E070
403870
400C70
FC0670
FF8330
00C1B0
0020F0
001070
ENDCHAR
STARTCHAR TIBETAN LETTER HA
ENCODING 8776
SWIDTH 1000 0
DWIDTH 24 0
BBX 17 17 7 1
BITMAP
7FFF00
FFFF00
380000
200000
60FC00
41FE00
670700
FF0380
018380
004300
000600
000400
000C00
000800
001000
002000
006000
ENDCHAR
STARTCHAR TIBETAN LETTER A
ENCODING 8777
SWIDTH 1000 0
DWIDTH 24 0
BBX 22 11 2 7
BITMAP
E3FE3C
E3FE1C
41F81C
421E1C
47871C
C0C19C
8040CC
E0C06C
7F003C
1E001C
00001C
ENDCHAR
STARTCHAR TIBETAN LETTER KSSA
ENCODING 8778
SWIDTH 1000 0
DWIDTH 24 0
BBX 20 21 4 -3
BITMAP
7FFFF0
FFFFF0
086070
183070
383070
F03030
801030
001030
001030
07C030
6FE030
783010
601810
703800
7FE800
6FCF00
603E00
404000
400000
400000
400000
ENDCHAR
STARTCHAR RESERVED
ENCODING 8779
SWIDTH 1000 0
DWIDTH 24 0
BBX 20 18 2 0
BITMAP
FFFFF0
FFFFF0
FFFFF0
FFFFF0
FFFFF0
FFFFF0
FFFFF0
FFFFF0
FFFFF0
FFFFF0
FFFFF0
FFFFF0
FFFFF0
FFFFF0
FFFFF0
FFFFF0
FFFFF0
FFFFF0
ENDCHAR
STARTCHAR RESERVED
ENCODING 8780
SWIDTH 1000 0
DWIDTH 24 0
BBX 20 18 2 0
BITMAP
FFFFF0
FFFFF0
FFFFF0
FFFFF0
FFFFF0
FFFFF0
FFFFF0
FFFFF0
FFFFF0
FFFFF0
FFFFF0
FFFFF0
FFFFF0
FFFFF0
FFFFF0
FFFFF0
FFFFF0
FFFFF0
ENDCHAR
STARTCHAR RESERVED
ENCODING 8781
SWIDTH 1000 0
DWIDTH 24 0
BBX 20 18 2 0
BITMAP
FFFFF0
FFFFF0
FFFFF0
FFFFF0
FFFFF0
FFFFF0
FFFFF0
FFFFF0
FFFFF0
FFFFF0
FFFFF0
FFFFF0
FFFFF0
FFFFF0
FFFFF0
FFFFF0
FFFFF0
FFFFF0
ENDCHAR
STARTCHAR RESERVED
ENCODING 8782
SWIDTH 1000 0
DWIDTH 24 0
BBX 20 18 2 0
BITMAP
FFFFF0
FFFFF0
FFFFF0
FFFFF0
FFFFF0
FFFFF0
FFFFF0
FFFFF0
FFFFF0
FFFFF0
FFFFF0
FFFFF0
FFFFF0
FFFFF0
FFFFF0
FFFFF0
FFFFF0
FFFFF0
ENDCHAR
STARTCHAR RESERVED
ENCODING 8783
SWIDTH 1000 0
DWIDTH 24 0
BBX 20 18 2 0
BITMAP
FFFFF0
FFFFF0
FFFFF0
FFFFF0
FFFFF0
FFFFF0
FFFFF0
FFFFF0
FFFFF0
FFFFF0
FFFFF0
FFFFF0
FFFFF0
FFFFF0
FFFFF0
FFFFF0
FFFFF0
FFFFF0
ENDCHAR
STARTCHAR RESERVED
ENCODING 8784
SWIDTH 1000 0
DWIDTH 24 0
BBX 20 18 2 0
BITMAP
FFFFF0
FFFFF0
FFFFF0
FFFFF0
FFFFF0
FFFFF0
FFFFF0
FFFFF0
FFFFF0
FFFFF0
FFFFF0
FFFFF0
FFFFF0
FFFFF0
FFFFF0
FFFFF0
FFFFF0
FFFFF0
ENDCHAR
STARTCHAR DUMMY VOWEL A
ENCODING 8785
SWIDTH 1000 0
DWIDTH 24 0
BBX 0 0 0 0
BITMAP
ENDCHAR
STARTCHAR TIBETAN VOWEL SIGN I
ENCODING 8787
SWIDTH 1000 0
DWIDTH 24 0
BBX 24 6 0 12
BITMAP
007800
03BF00
0403C0
071860
03E01C
000004
ENDCHAR
STARTCHAR TIBETAN VOWEL SIGN U
ENCODING 8789
SWIDTH 1000 0
DWIDTH 24 0
BBX 19 6 5 -6
BITMAP
E00000
1C0F80
070060
01C020
0038C0
000F00
ENDCHAR
STARTCHAR TIBETAN VOWEL SIGN E
ENCODING 8795
SWIDTH 1000 0
DWIDTH 24 0
BBX 14 5 8 12
BITMAP
FF00
FFC0
0070
0018
0004
ENDCHAR
STARTCHAR TIBETAN VOWEL SIGN EE
ENCODING 8796
SWIDTH 1000 0
DWIDTH 24 0
BBX 16 7 7 11
BITMAP
7E00
7FC0
00F8
F81E
FF83
03F0
001E
ENDCHAR
STARTCHAR TIBETAN VOWEL SIGN O
ENCODING 8797
SWIDTH 1000 0
DWIDTH 24 0
BBX 21 8 3 10
BITMAP
000008
000078
0000F0
780380
FF0E00
019800
006000
002000
ENDCHAR
STARTCHAR TIBETAN VOWEL SIGN OO
ENCODING 8798
SWIDTH 1000 0
DWIDTH 24 0
BBX 21 10 3 8
BITMAP
000008
000078
0003F0
7E0F08
033078
78A3E0
FF4E00
019800
006000
002000
ENDCHAR
STARTCHAR TIBETAN SIGN RJES SU NGA RO
ENCODING 8799
SWIDTH 1000 0
DWIDTH 24 0
BBX 9 5 10 13
BITMAP
3F00
4780
C180
F100
7E00
ENDCHAR
STARTCHAR TIBETAN SIGN RNAM BCAD
ENCODING 8800
SWIDTH 1000 0
DWIDTH 24 0
BBX 8 11 4 7
BITMAP
7C
86
82
E6
38
00
38
46
83
C2
7C
ENDCHAR
STARTCHAR TIBETAN VOWEL SIGN REVERSED I
ENCODING 8801
SWIDTH 1000 0
DWIDTH 24 0
BBX 24 6 0 12
BITMAP
0007C0
001F30
00700C
01C13C
0600F8
080000
ENDCHAR
STARTCHAR TIBETAN SIGN NYI ZLA NAA DA
ENCODING 8803
SWIDTH 1000 0
DWIDTH 24 0
BBX 11 8 10 10
BITMAP
0200
0600
0700
1980
1180
9F20
E0C0
3F00
ENDCHAR
STARTCHAR TIBETAN SIGN SNA LDAN
ENCODING 8804
SWIDTH 1000 0
DWIDTH 24 0
BBX 12 6 10 12
BITMAP
0F80
10C0
18C0
8F30
E0E0
3F00
ENDCHAR
STARTCHAR TIBETAN MARK HALANTA
ENCODING 8805
SWIDTH 1000 0
DWIDTH 24 0
BBX 10 6 14 -4
BITMAP
F000
FC00
0600
0100
0080
0040
ENDCHAR
STARTCHAR TIBETAN SIGN PALUTA
ENCODING 8806
SWIDTH 1000 0
DWIDTH 24 0
BBX 15 20 9 -2
BITMAP
0FE0
1FF0
3070
4060
C1F0
C6FC
080E
180E
0C0C
0018
0018
0030
0020
0060
0060
0060
0020
0030
001C
000C
ENDCHAR
STARTCHAR char8807
ENCODING 8807
SWIDTH 1000 0
DWIDTH 24 0
BBX 7 16 8 5
BITMAP
04
04
04
04
0C
18
30
60
C0
84
86
82
82
46
7C
38
ENDCHAR
STARTCHAR char8808
ENCODING 8808
SWIDTH 1000 0
DWIDTH 24 0
BBX 2 10 13 11
BITMAP
C0
C0
C0
C0
C0
C0
C0
C0
C0
C0
ENDCHAR
STARTCHAR char8809
ENCODING 8809
SWIDTH 1000 0
DWIDTH 24 0
BBX 13 10 7 11
BITMAP
FFF8
FFF8
3060
18C0
0D80
0F80
18C0
3060
FFF8
FFF8
ENDCHAR
STARTCHAR char8810
ENCODING 8810
SWIDTH 1000 0
DWIDTH 24 0
BBX 16 8 4 13
BITMAP
1E78
3FFC
6186
4182
C183
E187
C183
4002
ENDCHAR
STARTCHAR char8811
ENCODING 8811
SWIDTH 1000 0
DWIDTH 24 0
BBX 14 8 6 13
BITMAP
FCFC
FCFC
CCCC
CCCC
CCCC
CCCC
CFCC
CFCC
ENDCHAR
STARTCHAR char8812
ENCODING 8812
SWIDTH 1000 0
DWIDTH 24 0
BBX 18 11 5 10
BITMAP
000780
3C0CC0
7F0C40
C10CC0
818CC0
818C00
C10C00
E3EC00
663C00
001C00
000400
ENDCHAR
STARTCHAR TIBETAN SUBJOINED LETTER KA
ENCODING 8993
SWIDTH 1000 0
DWIDTH 24 0
BBX 20 12 4 6
BITMAP
7FFFF0
7FFFF0
086070
303070
E03030
001030
001030
000030
000010
000010
000010
000010
ENDCHAR
STARTCHAR TIBETAN SUBJOINED LETTER KHA
ENCODING 8994
SWIDTH 1000 0
DWIDTH 24 0
BBX 21 12 3 6
BITMAP
7FFFF8
FFFFF8
C04018
C08018
81FC18
800F88
8003F8
800078
800018
800000
800000
800000
ENDCHAR
STARTCHAR TIBETAN SUBJOINED LETTER GA
ENCODING 8995
SWIDTH 1000 0
DWIDTH 24 0
BBX 21 12 3 6
BITMAP
3FFFF8
7FFFF0
603070
403030
FE1030
FFD030
01F030
003030
001030
000010
000010
000010
ENDCHAR
STARTCHAR TIBETAN SUBJOINED LETTER GHA
ENCODING 8996
SWIDTH 1000 0
DWIDTH 24 0
BBX 20 15 4 3
BITMAP
7FFFF0
7FFFF0
403030
403030
FF3030
FFD030
007030
1FFF10
1FFF00
1C0000
21FE00
7F8780
07C180
004700
000800
ENDCHAR
STARTCHAR TIBETAN SUBJOINED LETTER NGA
ENCODING 8997
SWIDTH 1000 0
DWIDTH 24 0
BBX 19 8 5 10
BITMAP
7FFFE0
FFFFE0
600000
400000
FFFC00
FFFF80
0001C0
000040
ENDCHAR
STARTCHAR TIBETAN SUBJOINED LETTER CA
ENCODING 8998
SWIDTH 1000 0
DWIDTH 24 0
BBX 15 9 9 9
BITMAP
3FFE
3FFE
0180
01C0
FE3C
6006
1C0C
07F0
01E0
ENDCHAR
STARTCHAR TIBETAN SUBJOINED LETTER CHA
ENCODING 8999
SWIDTH 1000 0
DWIDTH 24 0
BBX 18 9 6 9
BITMAP
7FFF00
7FFF00
008000
3FFF00
E08180
C080C0
C1C0C0
7E3F80
3C1E00
ENDCHAR
STARTCHAR TIBETAN SUBJOINED LETTER JA
ENCODING 9000
SWIDTH 1000 0
DWIDTH 24 0
BBX 16 9 7 9
BITMAP
3FFF
3FFF
2000
7FFC
7FF8
4000
FFFE
FFFF
0001
ENDCHAR
STARTCHAR RESERVED
ENCODING 9001
SWIDTH 1000 0
DWIDTH 24 0
BBX 20 18 2 0
BITMAP
FFFFF0
FFFFF0
FFFFF0
FFFFF0
FFFFF0
FFFFF0
FFFFF0
FFFFF0
FFFFF0
FFFFF0
FFFFF0
FFFFF0
FFFFF0
FFFFF0
FFFFF0
FFFFF0
FFFFF0
FFFFF0
ENDCHAR
STARTCHAR TIBETAN SUBJOINED LETTER NYA
ENCODING 9002
SWIDTH 1000 0
DWIDTH 24 0
BBX 18 13 6 5
BITMAP
07F000
1FF800
701C00
803800
C0FF80
0387C0
070380
000700
000E00
001800
003000
006000
008000
ENDCHAR
STARTCHAR TIBETAN SUBJOINED LETTER TTA
ENCODING 9003
SWIDTH 1000 0
DWIDTH 24 0
BBX 18 12 6 6
BITMAP
7FFFC0
7FFFC0
000180
3FF100
F81D00
700600
380200
180000
0C0000
020000
010000
008000
ENDCHAR
STARTCHAR TIBETAN SUBJOINED LETTER TTHA
ENCODING 9004
SWIDTH 1000 0
DWIDTH 24 0
BBX 17 9 7 9
BITMAP
FFFE00
7FFF00
600300
7FFE00
7FFF00
600780
7FFE00
7FF800
400000
ENDCHAR
STARTCHAR TIBETAN SUBJOINED LETTER DDA
ENCODING 9005
SWIDTH 1000 0
DWIDTH 24 0
BBX 16 9 8 9
BITMAP
7FFF
7FFF
0006
0002
3FFF
7FFE
C000
8000
8000
ENDCHAR
STARTCHAR TIBETAN SUBJOINED LETTER DDHA
ENCODING 9006
SWIDTH 1000 0
DWIDTH 24 0
BBX 16 15 8 3
BITMAP
7FFC
7FFE
0002
0002
1FFF
7FFE
C000
CFFC
3FFE
3000
61FC
FF07
0F83
000C
0018
ENDCHAR
STARTCHAR TIBETAN SUBJOINED LETTER NNA
ENCODING 9007
SWIDTH 1000 0
DWIDTH 24 0
BBX 14 12 10 6
BITMAP
7FFC
7FFC
0600
0FF8
380C
780C
67F8
C3E0
C000
8000
8000
8000
ENDCHAR
STARTCHAR TIBETAN SUBJOINED LETTER TA
ENCODING 9008
SWIDTH 1000 0
DWIDTH 24 0
BBX 18 12 6 6
BITMAP
FFFF00
7FFF00
600000
21FF00
3FCFC0
1801C0
0C0180
000300
000600
000800
001000
006000
ENDCHAR
STARTCHAR TIBETAN SUBJOINED LETTER THA
ENCODING 9009
SWIDTH 1000 0
DWIDTH 24 0
BBX 17 9 7 9
BITMAP
7FFF80
3FFF00
600300
3FFF00
7FFF00
C00300
FFFF00
7FFF00
000300
ENDCHAR
STARTCHAR TIBETAN SUBJOINED LETTER DA
ENCODING 9010
SWIDTH 1000 0
DWIDTH 24 0
BBX 17 10 7 8
BITMAP
7FFF80
7FFF80
600000
400000
FFFE00
FFFF00
000180
000080
000080
000080
ENDCHAR
STARTCHAR TIBETAN SUBJOINED LETTER DHA
ENCODING 9011
SWIDTH 1000 0
DWIDTH 24 0
BBX 16 15 8 3
BITMAP
7FFF
7FFF
6000
4000
FFFE
FFFF
0001
7FFF
7FFE
2000
47FC
FE06
1F06
000C
0030
ENDCHAR
STARTCHAR TIBETAN SUBJOINED LETTER NA
ENCODING 9012
SWIDTH 1000 0
DWIDTH 24 0
BBX 14 12 10 6
BITMAP
7FF8
7FF8
0180
7FC0
C070
C078
7FD8
3F8C
0004
0004
0004
0004
ENDCHAR
STARTCHAR TIBETAN SUBJOINED LETTER PA
ENCODING 9013
SWIDTH 1000 0
DWIDTH 24 0
BBX 17 9 7 9
BITMAP
7FC380
FF8380
200180
400180
FFC180
FFF880
000E80
000180
000080
ENDCHAR
STARTCHAR TIBETAN SUBJOINED LETTER PHA
ENCODING 9014
SWIDTH 1000 0
DWIDTH 24 0
BBX 17 9 7 9
BITMAP
7F8380
FF0380
600780
401D80
FFF180
FFF880
003E80
000380
000080
ENDCHAR
STARTCHAR TIBETAN SUBJOINED LETTER BA
ENCODING 9015
SWIDTH 1000 0
DWIDTH 24 0
BBX 17 9 7 9
BITMAP
7FFF80
FFFF80
600180
400180
FFC180
FFF880
001E80
000180
000080
ENDCHAR
STARTCHAR TIBETAN SUBJOINED LETTER BHA
ENCODING 9016
SWIDTH 1000 0
DWIDTH 24 0
BBX 17 15 7 3
BITMAP
7FFF80
FFFF80
600180
400180
FF8180
FFF980
000F80
3FFF80
3FFE00
300000
43FC00
FE0F00
0F0300
010C00
001000
ENDCHAR
STARTCHAR TIBETAN SUBJOINED LETTER MA
ENCODING 9017
SWIDTH 1000 0
DWIDTH 24 0
BBX 19 9 5 9
BITMAP
7FE1E0
FFC1E0
0300C0
3FC0C0
E0F8C0
C06E40
7F8340
1F00C0
000040
ENDCHAR
STARTCHAR TIBETAN SUBJOINED LETTER TSA
ENCODING 9018
SWIDTH 1000 0
DWIDTH 24 0
BBX 18 11 6 9
BITMAP
0003C0
000CC0
3FFE00
3FFE00
008000
00E000
FF3C00
600600
1C1C00
0FF800
03F000
ENDCHAR
STARTCHAR TIBETAN SUBJOINED LETTER TSHA
ENCODING 9019
SWIDTH 1000 0
DWIDTH 24 0
BBX 19 11 5 9
BITMAP
0001E0
000260
7FFF00
7FFF00
008000
3FFF00
F0C1C0
C0C0C0
C1E1C0
3F3F00
1E1E00
ENDCHAR
STARTCHAR TIBETAN SUBJOINED LETTER DZA
ENCODING 9020
SWIDTH 1000 0
DWIDTH 24 0
BBX 20 11 4 9
BITMAP
0001F0
000230
3FFF00
3FFF00
200000
7FF800
7FF000
400000
FFFE00
FFFF00
000080
ENDCHAR
STARTCHAR TIBETAN SUBJOINED LETTER DZHA
ENCODING 9021
SWIDTH 1000 0
DWIDTH 24 0
BBX 22 17 2 3
BITMAP
00007C
00008C
1FFFC0
0FFF80
080000
1FFE00
1FFC00
100000
3FFF80
0000C0
3FFE00
300000
63FC00
FF0700
0F8300
008E00
001000
ENDCHAR
STARTCHAR TIBETAN SUBJOINED LETTER WA
ENCODING 9022
SWIDTH 1000 0
DWIDTH 24 0
BBX 7 7 17 -6
BITMAP
02
1E
62
42
F2
0E
02
ENDCHAR
STARTCHAR TIBETAN SUBJOINED LETTER ZHA
ENCODING 9023
SWIDTH 1000 0
DWIDTH 24 0
BBX 18 12 6 6
BITMAP
0FFF00
3FFF80
600180
E3FD00
860700
C3FD80
61F980
2000C0
0000C0
0000C0
000040
000040
ENDCHAR
STARTCHAR TIBETAN SUBJOINED LETTER ZA
ENCODING 9024
SWIDTH 1000 0
DWIDTH 24 0
BBX 17 10 7 8
BITMAP
7FFF80
7FFF80
000300
3FFF00
3FFF00
000100
FFF900
FFFF00
000700
000100
ENDCHAR
STARTCHAR TIBETAN SUBJOINED LETTER -A
ENCODING 9025
SWIDTH 1000 0
DWIDTH 24 0
BBX 11 7 13 -6
BITMAP
1F00
3F80
4180
C100
CF80
4FC0
0020
ENDCHAR
STARTCHAR TIBETAN SUBJOINED LETTER YA
ENCODING 9026
SWIDTH 1000 0
DWIDTH 24 0
BBX 19 9 4 -6
BITMAP
000020
8000E0
F80380
CFFE20
63FCC0
300180
1E0F00
07FC00
00F000
ENDCHAR
STARTCHAR TIBETAN SUBJOINED LETTER RA
ENCODING 9027
SWIDTH 1000 0
DWIDTH 24 0
BBX 16 6 8 -4
BITMAP
0001
FC01
7FC1
03F9
000D
0003
ENDCHAR
STARTCHAR TIBETAN SUBJOINED LETTER LA
ENCODING 9028
SWIDTH 1000 0
DWIDTH 24 0
BBX 23 9 1 9
BITMAP
07FC1E
1FFE1E
700E0C
C0180C
C0300C
C1FFCC
61FFFC
00001C
000004
ENDCHAR
STARTCHAR TIBETAN SUBJOINED LETTER SHA
ENCODING 9029
SWIDTH 1000 0
DWIDTH 24 0
BBX 20 12 4 6
BITMAP
01FFF0
07FFE0
0C0060
0F01E0
09FFE0
FE7E60
038060
018020
000020
000020
000020
000020
ENDCHAR
STARTCHAR TIBETAN SUBJOINED LETTER SSA
ENCODING 9030
SWIDTH 1000 0
DWIDTH 24 0
BBX 20 12 4 6
BITMAP
EFF800
7FFE00
700700
780D00
6FF100
67E7F0
600C00
401800
400000
400000
400000
400000
ENDCHAR
STARTCHAR TIBETAN SUBJOINED LETTER SA
ENCODING 9031
SWIDTH 1000 0
DWIDTH 24 0
BBX 20 8 4 10
BITMAP
3FF0F0
7FE0F0
207070
401C70
FF0670
FFE130
0020F0
001030
ENDCHAR
STARTCHAR TIBETAN SUBJOINED LETTER HA
ENCODING 9032
SWIDTH 1000 0
DWIDTH 24 0
BBX 17 12 7 6
BITMAP
7FFF00
FFFF00
600000
43FE00
FF0780
1F8380
004300
000600
000C00
001800
003000
006000
ENDCHAR
STARTCHAR TIBETAN SUBJOINED LETTER A
ENCODING 9033
SWIDTH 1000 0
DWIDTH 24 0
BBX 22 8 2 10
BITMAP
E7FE3C
C3FC1C
420E1C
47831C
C0C0CC
7F806C
3E001C
00000C
ENDCHAR
STARTCHAR TIBETAN SUBJOINED LETTER KSSA
ENCODING 9034
SWIDTH 1000 0
DWIDTH 24 0
BBX 20 14 4 4
BITMAP
7FFFF0
7FFFF0
183070
703070
C01030
001030
1FC030
7FE030
701810
703800
6FE800
67DF00
401800
401000
ENDCHAR
STARTCHAR char9035
ENCODING 9035
SWIDTH 1000 0
DWIDTH 24 0
BBX 20 18 2 0
BITMAP
FFFFF0
FFFFF0
FFFFF0
FFFFF0
FFFFF0
FFFFF0
FFFFF0
FFFFF0
FFFFF0
FFFFF0
FFFFF0
FFFFF0
FFFFF0
FFFFF0
FFFFF0
FFFFF0
FFFFF0
FFFFF0
ENDCHAR
STARTCHAR char9036
ENCODING 9036
SWIDTH 1000 0
DWIDTH 24 0
BBX 20 18 2 0
BITMAP
FFFFF0
FFFFF0
FFFFF0
FFFFF0
FFFFF0
FFFFF0
FFFFF0
FFFFF0
FFFFF0
FFFFF0
FFFFF0
FFFFF0
FFFFF0
FFFFF0
FFFFF0
FFFFF0
FFFFF0
FFFFF0
ENDCHAR
STARTCHAR char9037
ENCODING 9037
SWIDTH 1000 0
DWIDTH 24 0
BBX 20 18 2 0
BITMAP
FFFFF0
FFFFF0
FFFFF0
FFFFF0
FFFFF0
FFFFF0
FFFFF0
FFFFF0
FFFFF0
FFFFF0
FFFFF0
FFFFF0
FFFFF0
FFFFF0
FFFFF0
FFFFF0
FFFFF0
FFFFF0
ENDCHAR
STARTCHAR char9038
ENCODING 9038
SWIDTH 1000 0
DWIDTH 24 0
BBX 20 18 2 0
BITMAP
FFFFF0
FFFFF0
FFFFF0
FFFFF0
FFFFF0
FFFFF0
FFFFF0
FFFFF0
FFFFF0
FFFFF0
FFFFF0
FFFFF0
FFFFF0
FFFFF0
FFFFF0
FFFFF0
FFFFF0
FFFFF0
ENDCHAR
STARTCHAR char9039
ENCODING 9039
SWIDTH 1000 0
DWIDTH 24 0
BBX 20 18 2 0
BITMAP
FFFFF0
FFFFF0
FFFFF0
FFFFF0
FFFFF0
FFFFF0
FFFFF0
FFFFF0
FFFFF0
FFFFF0
FFFFF0
FFFFF0
FFFFF0
FFFFF0
FFFFF0
FFFFF0
FFFFF0
FFFFF0
ENDCHAR
STARTCHAR TIBETAN SUPERSCRIBED LETTER RA
ENCODING 9040
SWIDTH 1000 0
DWIDTH 24 0
BBX 14 5 8 13
BITMAP
FFFC
FFFC
0380
0180
0180
ENDCHAR
STARTCHAR TIBETAN SUBJOINED LETTER HYA
ENCODING 9041
SWIDTH 1000 0
DWIDTH 24 0
BBX 19 14 4 4
BITMAP
1FFF00
1FFF00
300000
21FE00
7F8380
078380
00C300
000600
601C00
FFF000
7000E0
0E0380
03FE00
00F800
ENDCHAR
STARTCHAR TIBETAN MARK NYI ZLA LEFT HALF
ENCODING 9042
SWIDTH 1000 0
DWIDTH 24 0
BBX 14 9 10 9
BITMAP
3E00
01E0
003C
000C
F000
0E00
01C0
0030
000C
ENDCHAR
STARTCHAR TIBETAN MARK NYI ZLA RIGHT HALF
ENCODING 9043
SWIDTH 1000 0
DWIDTH 24 0
BBX 24 13 0 5
BITMAP
0007E0
0018F8
00103E
C0300E
F83F07
3E0F03
0F800C
03F070
007F80
E00003
3C001C
0781E0
00FE00
ENDCHAR
STARTCHAR RESERVED
ENCODING 9044
SWIDTH 1000 0
DWIDTH 24 0
BBX 0 0 0 0
BITMAP
ENDCHAR
STARTCHAR KWA
ENCODING 9249
SWIDTH 1000 0
DWIDTH 24 0
BBX 24 18 0 0
BITMAP
07FFFF
07FFFF
018607
008703
018303
010303
0E0303
080303
000103
000103
000001
000001
00000F
000031
000041
0000F9
000007
000001
ENDCHAR
STARTCHAR KHWA
ENCODING 9250
SWIDTH 1000 0
DWIDTH 24 0
BBX 21 18 3 0
BITMAP
7FFFF8
FFFFF8
C07018
C06018
C0C018
C08018
C1FC18
C0FF88
8003C8
800068
800018
800008
800078
800188
800108
8003E8
8000D8
800008
ENDCHAR
STARTCHAR GWA
ENCODING 9251
SWIDTH 1000 0
DWIDTH 24 0
BBX 24 18 0 0
BITMAP
07FFFF
07FFFF
030307
060303
040303
040303
0FE303
007903
000503
000303
000001
000001
00000F
000031
000041
0000F9
000007
000001
ENDCHAR
STARTCHAR CWA
ENCODING 9252
SWIDTH 1000 0
DWIDTH 24 0
BBX 15 18 9 0
BITMAP
3FFE
3FFE
0180
0080
0080
01E0
FE7C
400E
3006
1C0C
07F0
0004
001C
0064
0084
01F4
000C
0004
ENDCHAR
STARTCHAR NYWA
ENCODING 9253
SWIDTH 1000 0
DWIDTH 24 0
BBX 16 18 8 0
BITMAP
0FFC
3FFE
600E
C01C
C3FC
4FFF
1007
1E06
060C
0010
0060
00C0
0340
0640
0840
1E40
01C0
0040
ENDCHAR
STARTCHAR TWA
ENCODING 9254
SWIDTH 1000 0
DWIDTH 24 0
BBX 15 18 9 0
BITMAP
FFFC
FFFC
C000
4000
47FC
7FFE
600E
200C
2010
0060
00C0
0300
0D00
1100
2100
7900
0700
0100
ENDCHAR
STARTCHAR DWA
ENCODING 9255
SWIDTH 1000 0
DWIDTH 24 0
BBX 17 18 7 0
BITMAP
7FFF00
FFFE00
180000
300000
200000
200000
7FF800
7FFF00
000180
000180
000080
000080
000780
001880
001080
003C80
000380
000080
ENDCHAR
STARTCHAR TSWA
ENCODING 9256
SWIDTH 1000 0
DWIDTH 24 0
BBX 18 20 6 0
BITMAP
0003C0
000CC0
3FFE00
3FFE00
010000
008000
008000
01E000
FE7C00
600E00
300600
1C0C00
07F400
03E400
001C00
006400
008400
01F400
000C00
000C00
ENDCHAR
STARTCHAR TSWA
ENCODING 9257
SWIDTH 1000 0
DWIDTH 24 0
BBX 19 20 5 0
BITMAP
0001E0
000660
7FFF00
7FFF00
010000
008000
008000
3FFE00
7FFF80
C080C0
C080C0
C1E080
3E1F00
1C0600
000E00
003200
004200
00FA00
000600
000200
ENDCHAR
STARTCHAR ZHWA
ENCODING 9258
SWIDTH 1000 0
DWIDTH 24 0
BBX 17 19 7 -1
BITMAP
03FE00
07FF00
1C0300
300180
60F180
C3F900
871F00
860700
C30F00
E1F980
60F080
200080
000080
000380
000C80
001080
003E80
000180
000080
ENDCHAR
STARTCHAR ZWA
ENCODING 9259
SWIDTH 1000 0
DWIDTH 24 0
BBX 17 18 7 0
BITMAP
3FFF80
7FFF80
000300
000300
3FFB00
3FFF00
000300
000300
7FF300
FFFF00
000F00
000100
000700
001900
002100
00FD00
000300
000100
ENDCHAR
STARTCHAR RWA
ENCODING 9260
SWIDTH 1000 0
DWIDTH 24 0
BBX 19 18 5 0
BITMAP
7FFF00
FFFE00
018000
008000
004000
FFE000
7FFC00
000F00
000380
0000C0
000040
000020
0000E0
000320
000420
000FA0
000060
000060
ENDCHAR
STARTCHAR LWA
ENCODING 9261
SWIDTH 1000 0
DWIDTH 24 0
BBX 24 18 0 0
BITMAP
01FF07
07FE0F
0C0707
100707
200603
600C03
601003
70FFC3
3803F3
10001B
000007
000001
00000F
000031
000041
0000F9
000007
000001
ENDCHAR
STARTCHAR SHWA
ENCODING 9262
SWIDTH 1000 0
DWIDTH 24 0
BBX 20 18 4 0
BITMAP
00FFF0
03FFE0
0701E0
0E00E0
0E00E0
0B83E0
08FF60
F87C60
0E0060
038060
008060
000020
0000E0
000320
000420
000FA0
000060
000020
ENDCHAR
STARTCHAR SWA
ENCODING 9263
SWIDTH 1000 0
DWIDTH 24 0
BBX 20 18 4 0
BITMAP
3FE0F0
3FE0F0
1FC060
20E060
403860
600C60
FE0620
FF8320
01C1A0
002060
000060
000020
0000E0
000320
000420
001FA0
000060
000020
ENDCHAR
STARTCHAR HWA
ENCODING 9264
SWIDTH 1000 0
DWIDTH 24 0
BBX 18 18 6 0
BITMAP
3FFFC0
3FFFC0
180000
307E00
60FF00
430380
FF01C0
1F81C0
008380
000700
000C00
003800
01D000
021000
0F1000
03D000
007000
001000
ENDCHAR
STARTCHAR KYA
ENCODING 9280
SWIDTH 1000 0
DWIDTH 24 0
BBX 22 18 2 0
BITMAP
7FFFF0
7FFFF0
186070
087030
183030
103030
E03030
803030
001030
001030
000010
000010
100010
1FFFE0
1C0004
078038
00FFE0
003FC0
ENDCHAR
STARTCHAR KHYA
ENCODING 9281
SWIDTH 1000 0
DWIDTH 24 0
BBX 23 20 1 -2
BITMAP
7FFFF8
FFFFF8
C07038
C0C018
C08018
C08018
C1FC18
C01F98
C003D8
800078
800018
840008
87C018
863FE2
818004
80FFF8
803FF0
800000
800000
800000
ENDCHAR
STARTCHAR GYA
ENCODING 9282
SWIDTH 1000 0
DWIDTH 24 0
BBX 21 17 1 1
BITMAP
7FFFF8
7FFFF0
303070
603070
603030
401030
FE1030
0F9030
00F010
001010
000010
100010
1FC070
1E7FC8
070030
01FFE0
007F80
ENDCHAR
STARTCHAR PYA
ENCODING 9283
SWIDTH 1000 0
DWIDTH 24 0
BBX 19 18 4 0
BITMAP
7F8380
7F8380
380380
200180
600180
400180
FF0180
FFF180
007D80
000E80
000380
000080
800180
FFFF00
700060
3C01C0
07FF00
03FE00
ENDCHAR
STARTCHAR PHYA
ENCODING 9284
SWIDTH 1000 0
DWIDTH 24 0
BBX 19 18 4 0
BITMAP
3F8380
7F8380
380380
200180
401F80
40E180
FF0180
FFF180
007D80
000E80
000380
000080
800080
FFFF00
600060
3C01C0
07FF00
03FE00
ENDCHAR
STARTCHAR BYA
ENCODING 9285
SWIDTH 1000 0
DWIDTH 24 0
BBX 19 18 4 0
BITMAP
7FFF80
7FFF80
380380
200180
600180
400180
FF0180
FFF180
003D80
000E80
000380
000080
800080
FFFF00
600020
3C01C0
0FFF00
03FE00
ENDCHAR
STARTCHAR MYA
ENCODING 9286
SWIDTH 1000 0
DWIDTH 24 0
BBX 20 18 3 0
BITMAP
7FC1E0
7FC1C0
0600C0
0300C0
1F00C0
7FE0C0
C078C0
C06C40
60C640
3F0140
1E00C0
000040
400040
7FFF80
380010
0F0060
03FF80
01FF00
ENDCHAR
STARTCHAR PHYWA
ENCODING 9287
SWIDTH 1000 0
DWIDTH 24 0
BBX 19 23 4 -5
BITMAP
3F8380
7F8380
380380
200180
401F80
40F980
FFC180
FFF180
007D80
000E80
000380
000080
800080
FFFF00
600020
3C01C0
0FFF00
03FE00
007800
018800
038800
006800
001800
ENDCHAR
STARTCHAR KRA
ENCODING 9296
SWIDTH 1000 0
DWIDTH 24 0
BBX 20 17 4 1
BITMAP
7FFFF0
7FFFF0
086070
087070
183070
203070
C03030
001030
001030
001030
000030
000030
000030
1FF030
1FFF10
000FD0
000030
ENDCHAR
STARTCHAR KHRA
ENCODING 9297
SWIDTH 1000 0
DWIDTH 24 0
BBX 21 18 3 0
BITMAP
7FFFF8
FFFFF8
C07018
C06018
C0C018
C08018
C1FC18
C1FF88
8001C8
800028
800018
800008
81FC08
81FF88
8001E8
800038
800008
800000
ENDCHAR
STARTCHAR GRA
ENCODING 9298
SWIDTH 1000 0
DWIDTH 24 0
BBX 20 18 4 0
BITMAP
7FFFF0
3FFFE0
703060
603020
403020
403020
FC3020
FF9020
005020
003020
000020
000020
000020
1FF020
1FFF20
000FE0
000060
000020
ENDCHAR
STARTCHAR TRA
ENCODING 9299
SWIDTH 1000 0
DWIDTH 24 0
BBX 17 17 7 1
BITMAP
3FFF00
3FFE00
300000
100000
11FF00
17FF80
0C0380
0C0700
080E00
001800
003000
004000
008000
FF8000
FFF800
000C00
000200
ENDCHAR
STARTCHAR THRA
ENCODING 9300
SWIDTH 1000 0
DWIDTH 24 0
BBX 17 18 7 0
BITMAP
7FFF80
3FFF00
600300
600300
3FFF00
3FFF00
600100
400100
FF8100
FFF900
003F00
000300
000100
FF8100
FFF900
003D00
000300
000100
ENDCHAR
STARTCHAR DRA
ENCODING 9301
SWIDTH 1000 0
DWIDTH 24 0
BBX 18 17 6 1
BITMAP
7FFF80
7FFF80
300000
600000
600000
400000
FF0000
FFE000
007800
001C00
000600
000300
000100
7FC180
7FFC80
000F80
0000C0
ENDCHAR
STARTCHAR PRA
ENCODING 9302
SWIDTH 1000 0
DWIDTH 24 0
BBX 17 18 7 0
BITMAP
7FC380
7F8380
300180
200180
600180
400180
FF8180
FFF080
007C80
000E80
000180
000080
000080
FF8080
FFF880
003E80
000180
000080
ENDCHAR
STARTCHAR PHRA
ENCODING 9303
SWIDTH 1000 0
DWIDTH 24 0
BBX 17 18 7 0
BITMAP
7FC380
FF8380
300180
600180
401F80
40FD80
FFC180
FFF180
007C80
000E80
000380
000080
000080
FF8080
FFF880
001E80
000180
000080
ENDCHAR
STARTCHAR BRA
ENCODING 9304
SWIDTH 1000 0
DWIDTH 24 0
BBX 17 18 7 0
BITMAP
7FFF80
7FFF80
300180
600180
600180
400180
FF8180
FFF080
003C80
000E80
000380
000080
000080
FF8080
FFF880
001E80
000180
000080
ENDCHAR
STARTCHAR MRA
ENCODING 9305
SWIDTH 1000 0
DWIDTH 24 0
BBX 19 18 5 0
BITMAP
7FE1E0
FFC1E0
0600C0
0300C0
1F80C0
3FC0C0
C07840
C02C40
E0C640
7F8140
3F00C0
000040
000040
7FC040
7FFC40
000F40
0000C0
000040
ENDCHAR
STARTCHAR SHRA
ENCODING 9306
SWIDTH 1000 0
DWIDTH 24 0
BBX 20 18 4 0
BITMAP
00FEF0
03FFF0
0701F0
0C00F0
0E00F0
0B83F0
08FF70
F87C70
0E0070
018070
000070
000030
000030
3FF030
3FFF30
0003F0
000030
000010
ENDCHAR
STARTCHAR SRA
ENCODING 9307
SWIDTH 1000 0
DWIDTH 24 0
BBX 20 17 4 1
BITMAP
3FF0F0
3FE060
1FC060
20E060
403860
400C60
FC0660
FF8320
00C1A0
0020A0
000060
000020
000020
3FF020
3FFE20
0003A0
000060
ENDCHAR
STARTCHAR HRA
ENCODING 9308
SWIDTH 1000 0
DWIDTH 24 0
BBX 18 17 6 1
BITMAP
3FFFC0
1FFFC0
380000
207C00
60FE00
430380
FE01C0
1F81C0
008380
000700
000E00
001800
002000
3FE000
3FFC00
000700
000180
ENDCHAR
STARTCHAR JRA
ENCODING 9309
SWIDTH 1000 0
DWIDTH 24 0
BBX 17 15 7 3
BITMAP
3FFF00
1FFF00
300000
200000
7FFC00
7FF800
400000
400000
7FF000
FFFE00
000300
FFC100
FFFD80
000F80
000080
ENDCHAR
STARTCHAR DZRA
ENCODING 9310
SWIDTH 1000 0
DWIDTH 24 0
BBX 20 17 4 3
BITMAP
0001F0
000330
3FFF00
3FFF00
180000
200000
7FFC00
7FF800
400000
400000
7FF000
FFFC00
000300
FFC100
FFFD00
000F80
000080
ENDCHAR
STARTCHAR GRWA
ENCODING 9311
SWIDTH 1000 0
DWIDTH 24 0
BBX 20 22 4 -4
BITMAP
7FFFF0
3FFFF0
703030
603030
403030
403030
FC3030
FF9030
005010
003010
000010
000010
000010
1FF010
1FFF10
0003D0
000030
0003D0
000410
000F90
0000F0
000010
ENDCHAR
STARTCHAR KLA
ENCODING 9312
SWIDTH 1000 0
DWIDTH 24 0
BBX 20 21 4 -3
BITMAP
7FFFF0
7FFFF0
186070
087030
183030
103030
E03030
803030
001030
001030
000010
07E070
0FE070
107030
203030
406030
608030
63FC30
03FFB0
0000D0
000030
ENDCHAR
STARTCHAR GLA
ENCODING 9313
SWIDTH 1000 0
DWIDTH 24 0
BBX 20 21 4 -3
BITMAP
7FFFF0
3FFFE0
303060
603020
403020
403020
FC1020
079020
007020
001020
000020
07C020
0FE070
187020
203020
406020
608020
63FC20
03FFA0
0001E0
000020
ENDCHAR
STARTCHAR BLA
ENCODING 9314
SWIDTH 1000 0
DWIDTH 24 0
BBX 19 21 5 -3
BITMAP
1FFFE0
1FFFE0
0E00E0
080060
180060
100060
3FC060
3FFC60
000F60
0003A0
0000E0
0F80E0
1FC0E0
20E060
406060
C0C060
C10060
C7F860
07FF60
0001A0
000060
ENDCHAR
STARTCHAR ZLA
ENCODING 9315
SWIDTH 1000 0
DWIDTH 24 0
BBX 19 21 5 -3
BITMAP
0FFFE0
1FFFE0
0000C0
0000C0
0FFEC0
0FFFC0
000040
000040
1FE040
3FFE40
0007C0
0F80E0
1FC1E0
20C0C0
40C0C0
C180C0
C30040
47F840
07FE40
0003C0
000040
ENDCHAR
STARTCHAR RLA
ENCODING 9316
SWIDTH 1000 0
DWIDTH 24 0
BBX 20 21 4 -3
BITMAP
7FFF00
7FFF00
018000
00C000
004000
FFE000
FFFC00
000F00
000380
0000C0
000060
07E070
0FF070
107070
207070
404030
618030
63FC30
63FF30
0003F0
000030
ENDCHAR
STARTCHAR SLA
ENCODING 9317
SWIDTH 1000 0
DWIDTH 24 0
BBX 20 21 4 -3
BITMAP
3FE0F0
3FE0F0
1FC060
20E060
403860
600C60
FE0620
FF8320
00C1A0
002060
000060
07C070
0FE0E0
106060
206060
40C060
618020
63FC20
03FF20
0001E0
000020
ENDCHAR
STARTCHAR RKA
ENCODING 9505
SWIDTH 1000 0
DWIDTH 24 0
BBX 20 19 4 -1
BITMAP
1FFF80
1FFF80
007000
003000
003000
7FFFF0
7FFFE0
087060
183060
303060
E03060
001060
001060
001020
000020
000020
000020
000020
000020
ENDCHAR
STARTCHAR RGA
ENCODING 9506
SWIDTH 1000 0
DWIDTH 24 0
BBX 20 19 4 -1
BITMAP
1FFF80
1FFF80
007000
003000
003000
7FFFF0
3FFFE0
603060
403060
403060
FE1060
FF9060
00F020
001020
000020
000020
000020
000020
000020
ENDCHAR
STARTCHAR RNGA
ENCODING 9507
SWIDTH 1000 0
DWIDTH 24 0
BBX 19 15 5 3
BITMAP
1FFF80
1FFF80
006000
003000
3FFFE0
7FFFE0
180000
300000
600000
400000
FFE000
FFFC00
000E00
000180
0000C0
ENDCHAR
STARTCHAR RJA
ENCODING 9508
SWIDTH 1000 0
DWIDTH 24 0
BBX 17 15 7 3
BITMAP
1FFF80
1FFF80
006000
003000
3FFF00
3FFF00
180000
200000
7FFC00
7FF800
400000
400000
FFF000
FFFE00
000300
ENDCHAR
STARTCHAR RNYA
ENCODING 9509
SWIDTH 1000 0
DWIDTH 24 0
BBX 19 22 4 -4
BITMAP
7FFF00
7FFF00
018000
00C000
004000
7FE000
7FFC00
000F00
000380
0000C0
0FF020
1FF820
601800
401800
C03000
C3FE00
0E0F00
1E0700
030600
000800
001000
002000
ENDCHAR
STARTCHAR RTA
ENCODING 9510
SWIDTH 1000 0
DWIDTH 24 0
BBX 16 18 8 0
BITMAP
7FFE
7FFE
0180
00C0
00C0
FFFC
FFFC
4000
43FE
7F3F
3007
3006
180C
0018
0030
00C0
0100
0600
ENDCHAR
STARTCHAR RDA
ENCODING 9511
SWIDTH 1000 0
DWIDTH 24 0
BBX 18 21 6 -3
BITMAP
3FFF00
3FFF00
00E000
006000
006000
7FFF80
3FFF80
200000
600000
400000
FFC000
FFF800
001E00
000300
000180
000080
0000C0
000040
000040
000040
000040
ENDCHAR
STARTCHAR RNA
ENCODING 9512
SWIDTH 1000 0
DWIDTH 24 0
BBX 15 20 9 -2
BITMAP
3FE0
3FE0
0600
0600
0600
FFFC
FFFC
0300
3FC0
FFF0
C038
C078
7FCC
1F0C
0004
0004
0006
0006
0002
0002
ENDCHAR
STARTCHAR RBA
ENCODING 9513
SWIDTH 1000 0
DWIDTH 24 0
BBX 24 15 0 3
BITMAP
007FFE
007FFE
000180
0000C0
00FFFF
00FFFF
006007
004003
008003
008003
01FF03
01FFE3
00007B
00000D
000007
ENDCHAR
STARTCHAR RMA
ENCODING 9514
SWIDTH 1000 0
DWIDTH 24 0
BBX 19 16 5 2
BITMAP
7FE000
7FE000
0C0000
0C0000
0C0000
7FC1E0
7FC1C0
0300C0
3F80C0
71F0C0
C078C0
C06C40
E0C640
7F8140
1F00C0
000040
ENDCHAR
STARTCHAR RTSA
ENCODING 9515
SWIDTH 1000 0
DWIDTH 24 0
BBX 19 16 5 2
BITMAP
3FFC00
3FFC00
030060
0103E0
1FFE00
3FFE00
01C000
008000
008000
01F000
FE7C00
600E00
300600
1C0C00
07F800
03E000
ENDCHAR
STARTCHAR RDZA
ENCODING 9516
SWIDTH 1000 0
DWIDTH 24 0
BBX 19 16 5 2
BITMAP
3FFF00
3FFF00
00C060
0061E0
3FFF00
3FFF00
180000
200000
7FFC00
7FF800
400000
400000
7FF000
FFFE00
000300
000100
ENDCHAR
STARTCHAR RGWA
ENCODING 9517
SWIDTH 1000 0
DWIDTH 24 0
BBX 21 22 3 -4
BITMAP
1FFF00
1FFF00
006000
006000
006000
7FFFF8
7FFFF0
203070
603070
403030
FC1030
FF9030
007030
001030
000030
000010
000030
0001D0
000210
000790
000070
000010
ENDCHAR
STARTCHAR RTSWA
ENCODING 9518
SWIDTH 1000 0
DWIDTH 24 0
BBX 19 21 5 -3
BITMAP
3FFC00
3FFC00
030060
0303E0
1FFE00
3FFE00
01C000
008000
008000
01E000
FE7C00
700E00
300600
1C1C00
07F200
01EE00
007200
004200
00F200
000E00
000200
ENDCHAR
STARTCHAR RKYA
ENCODING 9520
SWIDTH 1000 0
DWIDTH 24 0
BBX 21 22 2 -4
BITMAP
0FFF00
0FFF00
006000
006000
00E000
7FFFF0
7FFFE0
187060
183060
303060
E03060
003020
001020
001020
000020
000020
000060
1FFFC0
0E0018
0380E0
00FF80
007E00
ENDCHAR
STARTCHAR RGYA
ENCODING 9521
SWIDTH 1000 0
DWIDTH 24 0
BBX 21 22 2 -4
BITMAP
0FFF00
0FFF00
006000
006000
006000
7FFFF0
3FFFE0
603060
403020
403020
FC3020
FF9020
00D020
003020
000020
000020
000060
1FFFC0
0E0018
0380E0
00FF80
003F00
ENDCHAR
STARTCHAR RMYA
ENCODING 9522
SWIDTH 1000 0
DWIDTH 24 0
BBX 20 22 3 -4
BITMAP
3FE000
7FC000
0C0000
0C0000
7FC1E0
7FC1E0
0700C0
0300C0
3F80C0
79F0C0
C078C0
C02C40
E0C640
7F8140
1F00C0
000040
0000C0
7FFF00
380030
0E01C0
03FF00
00FC00
ENDCHAR
STARTCHAR LKA
ENCODING 9536
SWIDTH 1000 0
DWIDTH 24 0
BBX 23 23 1 -5
BITMAP
03FE0E
0FFC1E
180E0E
200E0E
400C06
C01806
C02006
E1FF86
7007E6
200036
00000E
03FFFE
07FFFE
00C60E
008706
010306
070306
040306
000106
000006
000006
000002
000002
ENDCHAR
STARTCHAR LGA
ENCODING 9537
SWIDTH 1000 0
DWIDTH 24 0
BBX 24 22 0 -4
BITMAP
01FF07
07FE0F
0C0707
100707
200603
600C03
601003
70FFC3
3803F3
10001B
000007
07FFFF
07FFFF
030303
060303
040303
0F8303
0FF303
000D03
000303
000003
000003
ENDCHAR
STARTCHAR LNGA
ENCODING 9538
SWIDTH 1000 0
DWIDTH 24 0
BBX 23 21 1 -3
BITMAP
03FC1E
0FFC0E
100E0E
200E0E
400C0E
80180E
80300E
C1FF06
71FFC6
200036
00001E
000006
03FFFE
01FFFE
030000
020000
020000
07FE00
0FFFE0
000038
000004
ENDCHAR
STARTCHAR LCA
ENCODING 9539
SWIDTH 1000 0
DWIDTH 24 0
BBX 23 21 1 -3
BITMAP
03FC0E
0FFC0E
100E0E
200E0E
400C06
801806
803006
C1FF06
71FFE6
200036
00000E
000006
00FFE0
00FFE0
000C00
040C00
07FFC0
030060
01C020
007FE0
001FC0
ENDCHAR
STARTCHAR LJA
ENCODING 9540
SWIDTH 1000 0
DWIDTH 24 0
BBX 23 21 1 -3
BITMAP
03FC1E
0FFC0E
100E0E
200E0E
400C0E
80180E
80300E
C1FF06
71FFC6
200036
00001E
000006
007FF8
00FFF8
004000
00FFE0
00FFC0
008000
00FFF0
00FFF8
000004
ENDCHAR
STARTCHAR LTA
ENCODING 9541
SWIDTH 1000 0
DWIDTH 24 0
BBX 23 22 1 -4
BITMAP
03FC1E
0FFC0E
100E0E
200E0E
400C06
801806
803006
C1FF06
71FFE6
200036
00000E
000006
00FFF8
00FFF0
00C000
005FF0
007FF8
002030
002060
0000C0
000100
000600
ENDCHAR
STARTCHAR LDA
ENCODING 9542
SWIDTH 1000 0
DWIDTH 24 0
BBX 23 25 1 -7
BITMAP
03FC0E
0FFC0E
100E0E
200E0E
400C06
801806
803006
C1FF06
71FFE6
200036
00000E
000006
00FFFE
007FFE
00C000
008000
01FF80
01FFF0
00003C
00000C
000006
000006
000002
000002
000002
ENDCHAR
STARTCHAR LPA
ENCODING 9543
SWIDTH 1000 0
DWIDTH 24 0
BBX 23 21 1 -3
BITMAP
03FC1E
0FFC0E
100E0E
200E0E
400C0E
80180E
80300E
C1FF06
71FFC6
200036
00001E
000006
00FF1E
007E0E
00C00E
00800E
00800E
01FF06
01FFE6
00003E
000006
ENDCHAR
STARTCHAR LBA
ENCODING 9544
SWIDTH 1000 0
DWIDTH 24 0
BBX 23 21 1 -3
BITMAP
03FC1E
0FFC0E
100E0E
200E0E
400C0E
80180E
80300E
C1FF06
71FFC6
200036
00001E
000006
00FFFE
007FFE
00C00C
00800C
00800C
01FF0C
01FFE4
00003C
000004
ENDCHAR
STARTCHAR LHA
ENCODING 9545
SWIDTH 1000 0
DWIDTH 24 0
BBX 23 22 1 -4
BITMAP
03FC1E
0FFC0E
100E0E
200E0E
400C0E
80180E
80300E
C1FF06
71FFC6
200036
00001E
000006
07FFC0
03FFC0
040000
087F80
0FC0E0
03E060
0010C0
000180
000300
000400
ENDCHAR
STARTCHAR SKA
ENCODING 9552
SWIDTH 1000 0
DWIDTH 24 0
BBX 24 22 0 -4
BITMAP
03FE0F
03FE0F
01FC06
020E06
040386
0600C6
0FE062
003832
000C1A
000206
000006
01FFFF
03FFFF
004307
004387
008183
038183
060183
000183
000003
000003
000003
ENDCHAR
STARTCHAR SGA
ENCODING 9553
SWIDTH 1000 0
DWIDTH 24 0
BBX 20 23 4 -5
BITMAP
3FE0F0
3FE0F0
1FC060
20E060
403860
600C60
FE0620
FF8320
00C1A0
002060
000060
7FFFF0
7FFFF0
307070
403030
403030
F83030
FF3030
00D030
003030
000030
000010
000010
ENDCHAR
STARTCHAR SNGA
ENCODING 9554
SWIDTH 1000 0
DWIDTH 24 0
BBX 20 21 4 -3
BITMAP
3FF0F0
7FE070
1FC070
20E070
403870
400C70
FC0670
FF8330
00C1B0
0040F0
000070
1FFFF0
1FFFF0
0C0000
180000
100000
100000
3FFC00
3FFFC0
000060
000020
ENDCHAR
STARTCHAR SNYA
ENCODING 9555
SWIDTH 1000 0
DWIDTH 24 0
BBX 20 22 4 -4
BITMAP
3FF0F0
7FE0E0
3FC060
20E060
403860
400C60
FC0620
FF0320
01C1A0
006060
000020
01FF00
0FFF80
0C0300
180F80
187FC0
01C070
038060
01C0C0
006180
000300
000400
ENDCHAR
STARTCHAR STA
ENCODING 9556
SWIDTH 1000 0
DWIDTH 24 0
BBX 20 22 4 -4
BITMAP
3FF0F0
7FE060
1FC060
20E060
403860
400C20
FC0620
FF8320
00C0A0
002060
000060
000020
0FFFC0
07FFC0
040000
05FF80
07FFC0
020180
010300
000600
000800
003000
ENDCHAR
STARTCHAR SDA
ENCODING 9557
SWIDTH 1000 0
DWIDTH 24 0
BBX 20 25 4 -7
BITMAP
3FF0F0
3FE070
1FC070
20E070
403870
400C70
FC0670
FF8330
00C1B0
0020F0
000070
000030
07FFF0
03FFF0
040000
040000
0FFC00
0FFF80
0001C0
0000E0
000030
000030
000010
000010
000010
ENDCHAR
STARTCHAR SNA
ENCODING 9558
SWIDTH 1000 0
DWIDTH 24 0
BBX 20 22 4 -4
BITMAP
3FF0F0
7FE070
1FC070
20E070
403870
400C70
FC0670
FF8330
00C1B0
0020F0
000070
01FFF0
01FFC0
001800
00FC00
038700
0303C0
0303C0
01FC60
00F860
000020
000020
ENDCHAR
STARTCHAR SPA
ENCODING 9559
SWIDTH 1000 0
DWIDTH 24 0
BBX 20 22 4 -4
BITMAP
3FF0F0
3FE070
1FC070
20E070
403870
400C70
FC0670
FF0330
01C1B0
0040F0
000070
000030
07FC70
0FF870
060030
040030
040030
0FF830
0FFF30
0001F0
000030
000010
ENDCHAR
STARTCHAR SBA
ENCODING 9560
SWIDTH 1000 0
DWIDTH 24 0
BBX 20 22 4 -4
BITMAP
3FF0F0
7FE070
1FC070
20E070
403870
400C70
FC0670
FF0330
00C1B0
0020F0
000070
000030
07FFF0
0FFFF0
040070
040070
040030
0FF830
1FFF30
0003F0
000030
000010
ENDCHAR
STARTCHAR SMA
ENCODING 9561
SWIDTH 1000 0
DWIDTH 24 0
BBX 20 21 4 -3
BITMAP
3FF0F0
7FE070
1FC070
30F070
603870
400C70
FC0670
FF0330
00C1B0
0020F0
000030
0FE070
0FF070
018030
0FF030
1C3C30
100E30
181B30
0FE1B0
03C070
000030
ENDCHAR
STARTCHAR STSA
ENCODING 9562
SWIDTH 1000 0
DWIDTH 24 0
BBX 20 22 4 -4
BITMAP
3FF0F0
7FE070
1FC070
20E070
403870
400C70
FC0670
FF0330
00C1B0
0020F0
000070
0FFE30
0FFE00
00C1E0
00C030
20C010
3FFC00
100600
0C0200
070600
01F800
00F000
ENDCHAR
STARTCHAR SKYA
ENCODING 9568
SWIDTH 1000 0
DWIDTH 24 0
BBX 20 23 2 -5
BITMAP
3FF0F0
7FE060
1BC060
20F060
401860
FC0E60
FF8320
00C1A0
002060
000020
3FFFF0
3FFFE0
043060
083060
381060
601020
001020
000020
0F0060
0FFFC0
03C030
007FC0
001F00
ENDCHAR
STARTCHAR SGYA
ENCODING 9569
SWIDTH 1000 0
DWIDTH 24 0
BBX 21 23 2 -5
BITMAP
3FF0F0
7FE060
1BC060
20F060
401860
FC0E60
FF8320
00C1A0
002060
000020
3FFFF0
7FFFE0
402060
402060
FE2020
FFE020
006020
000020
0E0060
07FFC8
038030
00FFC0
003F80
ENDCHAR
STARTCHAR SPYA
ENCODING 9570
SWIDTH 1000 0
DWIDTH 24 0
BBX 21 23 2 -5
BITMAP
3FF0F0
7FE060
1BC060
20F060
401860
FC0E60
FF8320
00C1A0
002060
000020
0FF0F0
0FF0E0
040060
040060
0FF820
1FFF20
0001E0
000020
0F0060
07FFC8
038030
00FFC0
007F00
ENDCHAR
STARTCHAR SBYA
ENCODING 9571
SWIDTH 1000 0
DWIDTH 24 0
BBX 21 23 2 -5
BITMAP
3FF0F0
7FE060
1BC060
20F060
401860
FC0E60
FF8320
00C1A0
002060
000020
07FFF0
0FFFE0
060060
040060
0FF820
0FFF20
0001E0
000020
0E0060
07FFC8
030030
01FFC0
007F80
ENDCHAR
STARTCHAR SMYA
ENCODING 9572
SWIDTH 1000 0
DWIDTH 24 0
BBX 21 23 2 -5
BITMAP
3FF0F0
7FE0E0
1BC060
20F060
401860
FC0E60
FF8320
00C1A0
002060
000020
0FF0F0
0FF0E0
00C060
0FF060
183E20
183FA0
0FE0E0
000020
0F0060
07FFC8
038030
00FFC0
003F80
ENDCHAR
STARTCHAR SKRA
ENCODING 9584
SWIDTH 1000 0
DWIDTH 24 0
BBX 20 22 4 -4
BITMAP
3FF0F0
7FE070
3FC070
20F070
401870
FC0630
FF0330
00C1B0
002070
000030
3FFFF0
3FFFF0
073070
0C3070
381070
601030
001030
000030
0FF030
0FFF30
0003F0
000070
ENDCHAR
STARTCHAR SGRA
ENCODING 9585
SWIDTH 1000 0
DWIDTH 24 0
BBX 20 22 4 -4
BITMAP
3FF0F0
7FE0F0
3FC060
20F060
401860
FC0620
FF0320
00C0A0
002060
000020
7FFFF0
3FFFE0
402060
402060
FE2020
FFE020
00E020
000020
0FF020
0FFF20
0003E0
000020
ENDCHAR
STARTCHAR SNRA
ENCODING 9586
SWIDTH 1000 0
DWIDTH 24 0
BBX 20 22 4 -4
BITMAP
3FF0F0
7FE070
3BC070
20F070
401870
FC0E30
FF8330
00C1B0
002070
000030
03FFC0
03FFC0
000800
01FE00
030380
0303C0
01FCE0
007860
000060
03FC20
03FFA0
0000E0
ENDCHAR
STARTCHAR SPRA
ENCODING 9587
SWIDTH 1000 0
DWIDTH 24 0
BBX 20 22 4 -4
BITMAP
3FF0F0
7FE0E0
3FC060
20F060
401860
FC0660
FF0320
00C1A0
002060
000020
07F0F0
0FF0F0
040060
040060
0FF820
1FFF20
0001E0
000020
0FF020
0FFF20
0003A0
000060
ENDCHAR
STARTCHAR SBRA
ENCODING 9588
SWIDTH 1000 0
DWIDTH 24 0
BBX 20 22 4 -4
BITMAP
3FF0F0
7FE060
3FC060
20F060
401860
FC0660
FF0320
00C1A0
002060
000020
07FFF0
03FFE0
040060
040060
0FF820
1FFF20
0001A0
000060
0FF020
0FFF20
0003A0
000060
ENDCHAR
STARTCHAR SMRA
ENCODING 9589
SWIDTH 1000 0
DWIDTH 24 0
BBX 20 22 4 -4
BITMAP
3FF0F0
7FE0F0
3BC060
20F060
401860
FC0E60
FF8320
00C1A0
002060
0FF070
0FF070
018060
0FE060
1C3860
183E20
1C33A0
0FE0E0
000020
0FF020
0FFF20
0003A0
000060
ENDCHAR
ENDFONT
